# xmcd
#
# Track frame offsets:
#	150
#	13061
#	25286
#	35993
#	52934
#	68179
#	78674
#	93950
#	106182
#	115597
#	130323
#	140155
#
# Disc length: 2072 seconds
#
# Revision: 0
# Processed by: cddbd v1.5.2PL0 Copyright (c) Steve Scherf et al.
# Submitted via: audiograbber 1.83.01
#
DISCID=a308160c
DTITLE=Paul Anka - Songs I Wish I'D Written
DYEAR=1970
DGENRE=Oldies
TTITLE0=Ramblin' Rose
TTITLE1=I Can't Stop Lovin' You
TTITLE2=He'll Have To Go
TTITLE3=You Always Hurt The One You Love
TTITLE4=Cry
TTITLE5=Can't Get Used To Losing You
TTITLE6=Save The Last Dance For Me
TTITLE7=Moon River
TTITLE8=All I Have To Do Is Dream
TTITLE9=It's Not For Me To Say
TTITLE10=Memories Are Made Of This
TTITLE11=Who's Sorry Now
EXTD=
EXTT0=
EXTT1=
EXTT2=
EXTT3=
EXTT4=
EXTT5=
EXTT6=
EXTT7=
EXTT8=
EXTT9=
EXTT10=
EXTT11=
PLAYORDER=
